<?xml version="1.0" standalone="no"?><!DOCTYPE svg PUBLIC "-//W3C//DTD SVG 1.1//EN" "http://www.w3.org/Graphics/SVG/1.1/DTD/svg11.dtd"><svg t="1591404710614" class="icon" viewBox="0 0 1024 1024" version="1.1" xmlns="http://www.w3.org/2000/svg" p-id="39332" xmlns:xlink="http://www.w3.org/1999/xlink" width="48" height="48"><defs><style type="text/css"></style></defs><path d="M705.599112 450.025541L639.644642 384.071072 573.974459 318.400888c-1.705719-1.705719-4.264298-1.705719-5.970017 0l-8.244309 8.244309c-1.705719 1.705719-1.705719 4.264298 0 5.970017l65.670183 65.670183 65.670184 65.670183c1.705719 1.705719 4.264298 1.705719 5.970016 0l8.244309-8.244308c1.990006-1.421433 1.990006-4.264298 0.284287-5.685731zM674.043309 461.112715l-55.720155-55.720155L562.887285 349.672404c-1.705719-1.705719-4.264298-1.705719-5.970017 0l-1.421432 1.421433c-1.705719 1.705719-1.705719 4.264298 0 5.970016l55.720155 55.720156 55.720156 55.720155c1.705719 1.705719 4.264298 1.705719 5.970016 0l1.421433-1.421432c1.421433-1.705719 1.421433-4.264298-0.284287-5.970017zM659.544697 475.611327l-55.720155-55.720155-55.720156-55.720156c-1.705719-1.705719-4.264298-1.705719-5.970016 0l-1.421433 1.421433c-1.705719 1.705719-1.705719 4.264298 0 5.970016l55.720156 55.720156 55.720155 55.720155c1.705719 1.705719 4.264298 1.705719 5.970017 0l1.421432-1.421432c1.705719-1.705719 1.705719-4.264298 0-5.970017zM638.507496 483.855636l-49.181566-49.181566-49.181566-49.181566c-1.421433-1.421433-3.980011-1.421433-5.68573 0l-1.705719 1.705719c-1.421433 1.421433-1.421433 3.980011 0 5.68573l49.181566 49.181566 49.181566 49.181566c1.421433 1.421433 3.980011 1.421433 5.68573 0l1.705719-1.705719c1.421433-1.705719 1.421433-4.264298 0-5.68573zM350.525264 753.074958l-39.800111-39.800111-39.800111-39.800111c-2.558579-2.558579-7.107163-2.558579-9.665742 0L221.743476 712.990561c-2.842865 2.842865-2.842865 7.391449 0 10.234314L251.593559 753.359245c1.421433 1.421433 3.695725 1.421433 4.832871 0l4.83287-4.832871c3.695725-3.695725 9.950028-3.695725 13.930039 0 3.695725 3.695725 3.695725 9.950028 0 13.930039l-4.83287 4.832871c-1.421433 1.421433-1.421433 3.695725 0 4.83287l30.134369 30.13437c2.842865 2.842865 7.391449 2.842865 10.234315 0l39.515824-39.515824c3.127152-2.558579 3.127152-7.107163 0.284287-9.665742zM614.343143 488.972793l-39.800111-39.800111-39.515825-39.515825c-2.842865-2.842865-7.391449-2.842865-10.234314 0l-245.05497 245.05497c-2.558579 2.558579-2.558579 7.107163 0 9.665741l39.800111 39.800111 39.800111 39.800111c2.558579 2.558579 7.107163 2.558579 9.665742 0l245.054969-245.054969c3.127152-2.558579 3.127152-7.107163 0.284287-9.950028z m-120.537479 62.827318c-5.970017 5.970017-15.920044 5.970017-21.890062 0-5.970017-5.970017-5.970017-15.920044 0-21.890061l17.341477-17.341477c5.970017-5.970017 15.920044-5.970017 21.890061 0 5.970017 5.970017 5.970017 15.920044 0 21.890061l-17.341476 17.341477zM778.945031 392.883953l-73.914492-73.914492-73.914492-73.914492c-1.421433-1.421433-3.411438-1.421433-4.832871 0L577.10161 294.236535c-1.705719 1.705719-1.705719 4.264298 0 5.970017l73.345919 73.345919 73.345919 73.345919c1.705719 1.705719 4.264298 1.705719 5.970017 0l49.181566-49.181566c1.421433-1.421433 1.421433-3.695725 0-4.832871zM803.39367 367.582454c-7.107163-7.960022-12.22432-17.341477-14.782898-27.575791-1.421433-4.832871-3.695725-9.665741-7.107163-12.792893l-3.695724-3.695724c-3.411438-3.411438-7.960022-5.68573-12.792893-7.107163-11.655747-3.127152-22.174348-9.097168-30.418657-17.625764l-4.548584-4.548584-4.548584-4.548584c-8.528595-8.528595-14.498612-19.047196-17.625763-30.418656-1.421433-4.832871-3.695725-9.665741-7.107163-12.792893l-3.695725-3.695725c-3.411438-3.411438-7.960022-5.68573-12.792892-7.107162-10.234314-2.842865-19.615769-7.675736-27.575792-14.782899-1.705719-1.421433-4.264298-1.421433-5.68573 0.284287l-11.940033 11.940033c-1.421433 1.421433-1.421433 3.411438 0 4.832871l73.914492 73.914492 73.914492 73.914492c1.421433 1.421433 3.411438 1.421433 4.83287 0l11.940034-11.940034c1.137146-1.990006 1.421433-4.548584-0.284287-6.254303z" fill="#313233" p-id="39333"></path><path d="M476.464187 547.535813c-3.695725-3.695725-3.695725-9.381455 0-13.077179l17.341477-17.341477c3.695725-3.695725 9.381455-3.695725 13.077179 0s3.695725 9.381455 0 13.077179l-17.341477 17.341477c-3.695725 3.411438-9.665741 3.411438-13.077179 0z" fill="#F2960F" p-id="39334"></path><path d="M700.197668 461.397002l2.842865-2.842865c3.127152-3.127152 3.127152-7.960022 0-11.087174l-65.670183-65.670183c2.558579 2.558579 1.421433 3.695725 0 5.117157l-8.812882 8.812881c-1.421433 1.421433-1.421433 3.695725 0 5.117158l60.553026 60.553026c2.842865 3.127152 7.960022 3.127152 11.087174 0zM672.621877 468.504164l1.421432-1.421432c1.705719-1.705719 1.705719-4.264298 0-5.970017l-55.720155-55.720155-7.391449 7.391449 55.720155 55.720155c1.705719 1.421433 4.548584 1.421433 5.970017 0zM658.123265 483.002776l1.421432-1.421432c1.705719-1.705719 1.705719-4.264298 0-5.970017l-55.720155-55.720155-7.391449 7.391449 55.720155 55.720155c1.705719 1.705719 4.264298 1.705719 5.970017 0zM636.801777 491.247085l1.705719-1.705719c1.421433-1.421433 1.421433-3.980011 0-5.68573l-49.181566-49.181566-7.391449 7.391449 49.181566 49.181566c1.421433 1.421433 3.980011 1.421433 5.68573 0zM275.473626 762.456413l-4.832871 4.832871c-1.421433 1.421433-1.421433 3.695725 0 4.83287l30.13437 30.13437c2.842865 2.842865 7.391449 2.842865 10.234314 0l39.515825-39.515824c2.558579-2.558579 2.558579-7.107163 0-9.665742l-39.800111-39.800111-35.251527 35.251527c3.695725 3.980011 3.695725 9.950028 0 13.930039zM369.288173 744.262077l245.05497-245.05497c2.842865-2.842865 2.842865-7.391449 0-10.234314l-46.338701-46.338701c6.53859 6.53859 3.127152 10.518601-1.421433 14.782899l-55.151582 55.151582c5.970017 5.970017 5.970017 15.920044 0 21.890061l-17.341477 17.341477c-5.970017 5.970017-15.920044 5.970017-21.890061 0l-144.133259 144.133259c-4.548584 4.548584-4.548584 11.655747 0 16.204331l31.840088 31.840089c2.274292 2.842865 6.53859 2.842865 9.381455 0.284287zM730.047751 446.614103l49.181566-49.181566c1.421433-1.421433 1.421433-3.411438 0-4.83287l-77.894503-77.894503c3.695725 3.695725 2.274292 5.401444 0.284286 7.107162L653.858967 369.57246c-1.990006 1.990006-1.990006 4.832871 0 6.822876l69.934481 69.934481c1.990006 1.990006 4.548584 1.990006 6.254303 0.284286zM791.16935 385.492504l12.22432-12.22432c1.705719-1.705719 1.705719-3.980011 0-5.68573-7.107163-7.960022-12.22432-17.341477-14.782898-27.575791-1.421433-4.832871-3.695725-9.665741-7.107163-12.792893l-3.695724-3.695724c-3.411438-3.411438-8.244309-5.970017-13.07718-7.107163-11.37146-2.842865-21.890061-9.097168-30.418656-17.625764l-5.970017-5.970016c1.705719 1.705719 0.85286 2.274292 0 3.127151l-14.214325 14.214326c-0.85286 0.85286-0.85286 2.274292 0 3.127151l72.493059 72.49306c1.137146 0.85286 3.411438 0.85286 4.548584-0.284287z" fill="#272728" p-id="39335"></path></svg>