<?xml version="1.0" standalone="no"?><!DOCTYPE svg PUBLIC "-//W3C//DTD SVG 1.1//EN" "http://www.w3.org/Graphics/SVG/1.1/DTD/svg11.dtd"><svg t="1591403952477" class="icon" viewBox="0 0 1024 1024" version="1.1" xmlns="http://www.w3.org/2000/svg" p-id="19110" xmlns:xlink="http://www.w3.org/1999/xlink" width="48" height="48"><defs><style type="text/css"></style></defs><path d="M762.368 969.344H262.656c-113.408 0-205.312-91.904-205.312-205.312V264.192C57.344 150.784 149.248 58.88 262.656 58.88h499.712C875.776 58.88 967.68 150.784 967.68 264.192v499.712c0.128 113.408-91.904 205.44-205.312 205.44z" fill="#00A9FA" p-id="19111"></path><path d="M769.024 292.096c-0.384-8.192-7.168-14.72-15.488-14.72H326.528V234.24c0-8.832 7.168-16 16-16h78.464c4.736 11.392 15.872 19.328 29.056 19.328h41.216c17.408 0 31.488-14.08 31.488-31.488s-14.08-31.488-31.488-31.488h-41.216c-13.056 0-24.32 7.936-29.056 19.328h-78.08c-22.4 0-40.576 18.176-40.576 40.576v42.752h-30.848c-8.192 0-14.976 6.4-15.488 14.72l-11.264 220.672h535.68l-11.392-220.544zM225.152 532.48c0 14.208 11.52 25.6 25.6 25.6h523.52c14.208 0 25.6-11.52 25.6-25.6h-574.72zM647.808 818.432h-85.248c-18.432 0-33.536-14.976-33.536-33.536V584.96c0-9.088-7.424-16.512-16.512-16.512-9.088 0-16.512 7.424-16.512 16.512v200.064c0 18.432-14.976 33.536-33.536 33.536h-85.248c-9.088 0-16.512 7.424-16.512 16.512v1.92c0 9.088 7.424 16.512 16.512 16.512h270.592c9.088 0 16.512-7.424 16.512-16.512v-1.92c0-9.216-7.424-16.64-16.512-16.64z" fill="#FFFFFF" p-id="19112"></path></svg>