<?xml version="1.0" standalone="no"?><!DOCTYPE svg PUBLIC "-//W3C//DTD SVG 1.1//EN" "http://www.w3.org/Graphics/SVG/1.1/DTD/svg11.dtd"><svg t="1591404037944" class="icon" viewBox="0 0 1024 1024" version="1.1" xmlns="http://www.w3.org/2000/svg" p-id="20222" xmlns:xlink="http://www.w3.org/1999/xlink" width="48" height="48"><defs><style type="text/css"></style></defs><path d="M959.744 281.984v502.784c0 114.048-92.288 206.464-206.464 206.464H250.368c-114.048 0-206.464-92.544-206.464-206.464V281.984c0-113.92 92.544-206.464 206.464-206.464h502.784c114.304 0 206.592 92.544 206.592 206.464z" fill="#FFFFFF" p-id="20223"></path><path d="M959.872 281.984v27.648H44.032v-27.648c0-113.92 92.544-206.464 206.464-206.464h502.784c114.304 0 206.592 92.544 206.592 206.464z" fill="#FFD143" p-id="20224"></path><path d="M43.904 517.76h915.84v15.616H43.904zM43.904 741.632h915.84v15.616H43.904z" fill="#C2C2C7" p-id="20225"></path><path d="M73.088 354.944m-11.392 0a11.392 11.392 0 1 0 22.784 0 11.392 11.392 0 1 0-22.784 0Z" fill="#C2C2C7" p-id="20226"></path><path d="M108.8 354.944m-11.392 0a11.392 11.392 0 1 0 22.784 0 11.392 11.392 0 1 0-22.784 0Z" fill="#C2C2C7" p-id="20227"></path><path d="M144.512 354.944m-11.392 0a11.392 11.392 0 1 0 22.784 0 11.392 11.392 0 1 0-22.784 0Z" fill="#C2C2C7" p-id="20228"></path><path d="M180.224 354.944m-11.392 0a11.392 11.392 0 1 0 22.784 0 11.392 11.392 0 1 0-22.784 0Z" fill="#C2C2C7" p-id="20229"></path><path d="M216.064 354.944m-11.392 0a11.392 11.392 0 1 0 22.784 0 11.392 11.392 0 1 0-22.784 0Z" fill="#C2C2C7" p-id="20230"></path><path d="M251.776 354.944m-11.392 0a11.392 11.392 0 1 0 22.784 0 11.392 11.392 0 1 0-22.784 0Z" fill="#C2C2C7" p-id="20231"></path><path d="M287.488 354.944m-11.392 0a11.392 11.392 0 1 0 22.784 0 11.392 11.392 0 1 0-22.784 0Z" fill="#C2C2C7" p-id="20232"></path><path d="M323.2 354.944m-11.392 0a11.392 11.392 0 1 0 22.784 0 11.392 11.392 0 1 0-22.784 0Z" fill="#C2C2C7" p-id="20233"></path><path d="M358.912 354.944m-11.392 0a11.392 11.392 0 1 0 22.784 0 11.392 11.392 0 1 0-22.784 0Z" fill="#C2C2C7" p-id="20234"></path><path d="M394.752 354.944m-11.392 0a11.392 11.392 0 1 0 22.784 0 11.392 11.392 0 1 0-22.784 0Z" fill="#C2C2C7" p-id="20235"></path><path d="M430.464 354.944m-11.392 0a11.392 11.392 0 1 0 22.784 0 11.392 11.392 0 1 0-22.784 0Z" fill="#C2C2C7" p-id="20236"></path><path d="M466.176 354.944m-11.392 0a11.392 11.392 0 1 0 22.784 0 11.392 11.392 0 1 0-22.784 0Z" fill="#C2C2C7" p-id="20237"></path><path d="M501.888 354.944m-11.392 0a11.392 11.392 0 1 0 22.784 0 11.392 11.392 0 1 0-22.784 0Z" fill="#C2C2C7" p-id="20238"></path><path d="M537.6 354.944m-11.392 0a11.392 11.392 0 1 0 22.784 0 11.392 11.392 0 1 0-22.784 0Z" fill="#C2C2C7" p-id="20239"></path><path d="M573.44 354.944m-11.392 0a11.392 11.392 0 1 0 22.784 0 11.392 11.392 0 1 0-22.784 0Z" fill="#C2C2C7" p-id="20240"></path><path d="M609.152 354.944m-11.392 0a11.392 11.392 0 1 0 22.784 0 11.392 11.392 0 1 0-22.784 0Z" fill="#C2C2C7" p-id="20241"></path><path d="M644.864 354.944m-11.392 0a11.392 11.392 0 1 0 22.784 0 11.392 11.392 0 1 0-22.784 0Z" fill="#C2C2C7" p-id="20242"></path><path d="M680.576 354.944m-11.392 0a11.392 11.392 0 1 0 22.784 0 11.392 11.392 0 1 0-22.784 0Z" fill="#C2C2C7" p-id="20243"></path><path d="M716.288 354.944m-11.392 0a11.392 11.392 0 1 0 22.784 0 11.392 11.392 0 1 0-22.784 0Z" fill="#C2C2C7" p-id="20244"></path><path d="M752.128 354.944m-11.392 0a11.392 11.392 0 1 0 22.784 0 11.392 11.392 0 1 0-22.784 0Z" fill="#C2C2C7" p-id="20245"></path><path d="M787.84 354.944m-11.392 0a11.392 11.392 0 1 0 22.784 0 11.392 11.392 0 1 0-22.784 0Z" fill="#C2C2C7" p-id="20246"></path><path d="M823.552 354.944m-11.392 0a11.392 11.392 0 1 0 22.784 0 11.392 11.392 0 1 0-22.784 0Z" fill="#C2C2C7" p-id="20247"></path><path d="M859.264 354.944m-11.392 0a11.392 11.392 0 1 0 22.784 0 11.392 11.392 0 1 0-22.784 0Z" fill="#C2C2C7" p-id="20248"></path><path d="M894.976 354.944m-11.392 0a11.392 11.392 0 1 0 22.784 0 11.392 11.392 0 1 0-22.784 0Z" fill="#C2C2C7" p-id="20249"></path><path d="M930.816 354.944m-11.392 0a11.392 11.392 0 1 0 22.784 0 11.392 11.392 0 1 0-22.784 0Z" fill="#C2C2C7" p-id="20250"></path></svg>