<?xml version="1.0" standalone="no"?><!DOCTYPE svg PUBLIC "-//W3C//DTD SVG 1.1//EN" "http://www.w3.org/Graphics/SVG/1.1/DTD/svg11.dtd"><svg t="1591403278638" class="icon" viewBox="0 0 1024 1024" version="1.1" xmlns="http://www.w3.org/2000/svg" p-id="5635" width="48" height="48" xmlns:xlink="http://www.w3.org/1999/xlink"><defs><style type="text/css"></style></defs><path d="M814.933333 914.666667H214.4c-54.933333 0-99.733333-44.8-99.733333-99.733334V214.4c0-54.933333 44.8-99.733333 99.733333-99.733333h601.066667c54.933333 0 99.733333 44.8 99.733333 99.733333v601.066667c-0.533333 54.4-45.333333 99.2-100.266667 99.2z" fill="#FFFFFF" p-id="5636"></path><path d="M512 517.333333m-256 0a256 256 0 1 0 512 0 256 256 0 1 0-512 0Z" fill="#1195db" p-id="5637" data-spm-anchor-id="a313x.7781069.0.i13" class="selected"></path><path d="M551.466667 552.533333l-38.933334-31.466666-38.933333-30.933334 80.533333-61.333333L634.666667 368l-41.6 92.266667zM468.8 493.866667l39.466667 30.933333 38.933333 30.933333-80.533333 61.333334-81.066667 61.333333 41.6-92.266667z" fill="#FFFFFF" p-id="5638"></path></svg>