<?xml version="1.0" standalone="no"?><!DOCTYPE svg PUBLIC "-//W3C//DTD SVG 1.1//EN" "http://www.w3.org/Graphics/SVG/1.1/DTD/svg11.dtd"><svg t="1591406424029" class="icon" viewBox="0 0 1024 1024" version="1.1" xmlns="http://www.w3.org/2000/svg" p-id="79661" xmlns:xlink="http://www.w3.org/1999/xlink" width="48" height="48"><defs><style type="text/css"></style></defs><path d="M216.6 169.1h591.3c57.6 0 104.3 46.7 104.3 104.3V743c0 57.6-46.7 104.3-104.3 104.3H216.6c-57.6 0-104.3-46.7-104.3-104.3V273.5c0-57.7 46.7-104.4 104.3-104.4z" fill="#37AFFA" p-id="79662"></path><path d="M112.3 692.5V743c0 57.6 46.7 104.3 104.3 104.3h33.7c-57.5-39.6-105-92.8-138-154.8zM196.9 171c-48.2 9.2-84.6 51.6-84.6 102.5v8.9c22.1-41.6 50.8-79.2 84.6-111.4zM912.3 743V628.4c-30.5 89.6-89.3 166.2-165.8 219h61.4c57.7 0 104.4-46.7 104.4-104.4zM912.3 346.5v-73c0-57.6-46.7-104.3-104.3-104.3h-10c51.3 48.3 91 109 114.3 177.3z" fill="#37AFFA" p-id="79663"></path><path d="M912.3 628.4V346.5c-23.3-68.3-62.9-129-114.3-177.4h-86.6C800 238.1 857 345.9 857 466.9c0 208.3-168.9 377.2-377.2 377.2-179 0-328.8-124.6-367.5-291.8v140.2c33 62 80.5 115.2 138 154.9h496.2c76.5-52.8 135.3-129.4 165.8-219zM248.2 169.1h-31.6c-6.8 0-13.4 0.6-19.8 1.9-33.8 32.2-62.5 69.8-84.6 111.4v99.1c19.9-85.6 68.9-160.1 136-212.4z" fill="#41B6FB" p-id="79664"></path><path d="M479.8 844.1c208.3 0 377.2-168.9 377.2-377.2 0-121-57-228.8-145.6-297.8h-95.7c97.2 54.2 162.9 158.1 162.9 277.2 0 175.3-142.1 317.3-317.3 317.3s-317.4-142-317.4-317.3c0-119.2 65.7-223 162.9-277.2h-58.5c-67.1 52.3-116.1 126.8-135.9 212.4v170.8C151 719.5 300.8 844.1 479.8 844.1z" fill="#4CBCFC" p-id="79665"></path><path d="M143.9 446.3c0 175.3 142.1 317.3 317.3 317.3s317.3-142.1 317.3-317.3c0-119.2-65.7-223-162.9-277.2H462.1c133 10 237.9 121.1 237.9 256.7 0 142.2-115.3 257.4-257.4 257.4S185.1 568 185.1 425.8c0-135.6 104.8-246.7 237.9-256.7H306.7c-97.1 54.3-162.8 158.1-162.8 277.2z" fill="#56C3FD" p-id="79666"></path><path d="M185.1 425.8c0 142.2 115.3 257.4 257.4 257.4S700 568 700 425.8c0-135.6-104.8-246.7-237.9-256.7H423c-133 10-237.9 121.1-237.9 256.7zM424 207.7c109.1 0 197.5 88.4 197.5 197.5S533.1 602.8 424 602.8s-197.5-88.4-197.5-197.5S314.9 207.7 424 207.7z" fill="#60C9FD" p-id="79667"></path><path d="M424 602.8c109.1 0 197.5-88.4 197.5-197.5S533.1 207.7 424 207.7s-197.5 88.4-197.5 197.5S314.9 602.8 424 602.8z m-18.6-355.7c76 0 137.6 61.6 137.6 137.6s-61.6 137.6-137.6 137.6-137.6-61.6-137.6-137.6 61.5-137.6 137.6-137.6z" fill="#6BCFFE" p-id="79668"></path><path d="M405.4 384.7m-137.6 0a137.6 137.6 0 1 0 275.2 0 137.6 137.6 0 1 0-275.2 0Z" fill="#75D6FF" p-id="79669"></path><path d="M807.9 187.1c47.6 0 86.3 38.7 86.3 86.3V743c0 47.6-38.7 86.3-86.3 86.3H216.6c-47.6 0-86.3-38.7-86.3-86.3V273.5c0-47.6 38.7-86.3 86.3-86.3l591.3-0.1m0-18H216.6c-57.6 0-104.3 46.7-104.3 104.3V743c0 57.6 46.7 104.3 104.3 104.3h591.3c57.6 0 104.3-46.7 104.3-104.3V273.5c0.1-57.7-46.6-104.4-104.3-104.4z" fill="#37AFFA" p-id="79670"></path><path d="M459.5 435.2c-28.8 0-52.2 23.4-52.2 52.2v121.7c0 28.8 23.4 52.2 52.2 52.2h434.8V435.2H459.5z m60.9 173.9c-33.6 0-60.9-27.3-60.9-60.9 0-33.6 27.2-60.9 60.9-60.9 33.6 0 60.9 27.2 60.9 60.9-0.1 33.7-27.3 60.9-60.9 60.9z" fill="#B9E8FF" p-id="79671"></path><path d="M171.7 312.6c-9.9 0-18-8.1-18-18v-11c0-41 33.3-74.3 74.3-74.3h16.9c9.9 0 18 8.1 18 18s-8.1 18-18 18H228c-21.1 0-38.3 17.2-38.3 38.3v11c0 10-8.1 18-18 18zM171.7 382.2c-9.9 0-18-8.1-18-18v-10.5c0-9.9 8.1-18 18-18s18 8.1 18 18v10.5c0 10-8.1 18-18 18z" fill="#FFFFFF" p-id="79672"></path></svg>