<?xml version="1.0" standalone="no"?><!DOCTYPE svg PUBLIC "-//W3C//DTD SVG 1.1//EN" "http://www.w3.org/Graphics/SVG/1.1/DTD/svg11.dtd"><svg t="1591355576406" class="icon" viewBox="0 0 1024 1024" version="1.1" xmlns="http://www.w3.org/2000/svg" p-id="4990" xmlns:xlink="http://www.w3.org/1999/xlink" width="16" height="16"><defs><style type="text/css"></style></defs><path d="M912 378.8c0 5.3-2.5 8.9-7.6 10.8L515.5 511.8c-0.9 0.3-2.1 0.4-3.5 0.4s-2.5-0.1-3.5-0.4l-226.4-71.6c-9.9 7.9-18.2 20.8-24.6 38.7-6.5 17.9-10.4 38.6-11.8 62 14.6 8.3 21.8 21 21.8 37.8 0 16-6.7 28.4-20.1 37.1l20.1 150.3c0.5 3.2-0.5 6.1-2.8 8.6-2.1 2.5-4.9 3.8-8.3 3.8h-66.6c-3.5 0-6.3-1.3-8.3-3.8-2.3-2.5-3.2-5.4-2.8-8.6L199 615.8c-13.5-8.8-20.1-21.3-20.1-37.1 0-16.9 7.5-29.8 22.6-38.5 2.5-48 13.9-86.1 34.1-114.6l-115.8-36c-5.1-1.9-7.6-5.4-7.6-10.8 0-5.3 2.5-8.9 7.6-10.8l388.9-122.2c0.9-0.3 2.1-0.4 3.5-0.4s2.5 0.1 3.5 0.4L904.4 368c5.1 1.9 7.6 5.5 7.6 10.8zM728 491.3l6.3 109.7c0.9 16-8.5 30.8-28.5 44.5-20 13.6-47.1 24.4-81.6 32.5-34.5 8-71.8 12-112.1 12s-77.7-4-112.1-12c-34.5-8-61.6-18.7-81.6-32.5-20-13.6-29.4-28.5-28.5-44.5l6.3-109.7 199.3 62.9c5.1 1.7 10.7 2.4 16.7 2.4s11.6-0.7 16.7-2.4L728 491.3z" p-id="4991" data-spm-anchor-id="a313x.7781069.0.i37" fill="#ffffff" class="selected"></path></svg>