<?xml version="1.0" standalone="no"?><!DOCTYPE svg PUBLIC "-//W3C//DTD SVG 1.1//EN" "http://www.w3.org/Graphics/SVG/1.1/DTD/svg11.dtd"><svg t="1591514127995" class="icon" viewBox="0 0 1024 1024" version="1.1" xmlns="http://www.w3.org/2000/svg" p-id="25838" xmlns:xlink="http://www.w3.org/1999/xlink" width="32" height="32"><defs><style type="text/css"></style></defs><path d="M192 0l0 1024 768 0 0-1024-768 0zM576 256.32768c70.51264 0 127.67232 57.15968 127.67232 127.67232s-57.15968 127.67232-127.67232 127.67232-127.67232-57.15968-127.67232-127.67232 57.15968-127.67232 127.67232-127.67232l0 0zM768 768l-384 0 0-64c0-70.69696 57.30304-128 128-128l0 0 128 0c70.69696 0 128 57.30304 128 128l0 64zM64 64l96.01024 0 0 192-96.01024 0 0-192zM64 320l96.01024 0 0 192-96.01024 0 0-192zM64 576l96.01024 0 0 192-96.01024 0 0-192zM64 832l96.01024 0 0 192-96.01024 0 0-192z" p-id="25839" fill="#cdcdcd"></path></svg>